# xmcd CD database file
#
# Track frame offsets:
#	150
#	14317
#	30387
#	44876
#	61814
#	80331
#	96237
#	119792
#	138835
#	156939
#	171827
#	190443
#	210535
#
# Disc length: 3034 seconds
#
# Revision: 0
# Processed by: cddbd v1.5.2PL0 Copyright (c) Steve Scherf et al.
# Submitted via: CDex 1.78
#
DISCID=b40bd80d
DTITLE=T. Graham Brown - Forever Changed
DYEAR=2015
DGENRE=Country
TTITLE0=He'll Take Care Of You (with Vince Gill)
TTITLE1=From A Stronger Place
TTITLE2=Soul Talk (with Jason Crabb)
TTITLE3=Forever Changed
TTITLE4=Shadow Of Doubt (with Leon Russell)
TTITLE5=Power Of Love (with Jeff and Sheri Easter)
TTITLE6=Out Of The Rain
TTITLE7=People Get Ready (with Jason Crabb, Leon Russell, Steve Cropper, and The Oak Ridge Boys)
TTITLE8=Pillow Of Mercy (with The Booth Brothers)
TTITLE9=Midnight Rainbow (with Three Bridges)
TTITLE10=Which Way To Pray (with Sonya Isaacs)
TTITLE11=How Do You Know (with The Oak Ridge Boys)
TTITLE12=Wine Into Water (with Jimmy Fortune)
EXTD=YEAR: 2015
EXTT0=
EXTT1=
EXTT2=
EXTT3=
EXTT4=
EXTT5=
EXTT6=
EXTT7=
EXTT8=
EXTT9=
EXTT10=
EXTT11=
EXTT12=
PLAYORDER=
